<svg width="24" height="24" viewBox="0 0 24 24" fill="none" xmlns="http://www.w3.org/2000/svg">
<path d="M16.0313 0.182856C16.0313 0.206293 15.9891 0.243792 15.9328 0.257854C15.8109 0.300043 15.4688 0.600042 15.4688 0.670355C15.4688 0.698481 15.4406 0.75473 15.4078 0.792231C15.2953 0.928167 15.2344 1.24692 15.2344 1.7016V2.15161L15.0609 2.18442C14.9625 2.20317 14.8641 2.23129 14.8359 2.25004C14.8125 2.26879 14.7141 2.30161 14.625 2.32036C14.4563 2.35317 14.0813 2.50786 13.7766 2.67661C13.6828 2.72348 13.5422 2.79848 13.4719 2.83598L13.3359 2.90629L12.8672 2.43754C12.6094 2.17973 12.3797 1.96879 12.3563 1.96879C12.3328 1.96879 12.2719 1.93129 12.2203 1.88442C12.15 1.81879 12.0469 1.80473 11.7 1.80473C11.0906 1.80942 10.9078 1.92192 10.5328 2.54067C10.4766 2.62973 10.4531 2.77504 10.4531 3.01411C10.4531 3.46879 10.5703 3.67973 11.1188 4.23754C11.5219 4.64067 11.5828 4.74379 11.4797 4.80473C11.4563 4.82348 11.4094 4.88911 11.3859 4.95473C11.3531 5.03911 11.3203 5.06254 11.2594 5.03911C10.95 4.91723 9.70781 4.87036 9.07031 4.96411C8.65781 5.02036 8.09531 5.15629 7.80469 5.26879C7.70156 5.30629 7.58906 5.33911 7.55156 5.34379C7.47188 5.34379 6.66563 5.74692 6.5625 5.83598C6.525 5.86879 6.44531 5.91098 6.39375 5.92504C6.3375 5.94379 6.25781 5.99536 6.21094 6.04692C6.16406 6.09848 6.10781 6.14067 6.08438 6.14067C5.98594 6.14067 5.18906 6.83442 4.89844 7.18129C4.51406 7.63598 4.26562 7.95004 4.26562 7.99223C4.26562 8.0063 4.18594 8.14223 4.0875 8.28755C3.90469 8.55473 3.69844 8.96723 3.63281 9.18755C3.61406 9.25317 3.58125 9.32348 3.5625 9.35161C3.54375 9.37505 3.51094 9.47348 3.49219 9.56255C3.47344 9.65161 3.43594 9.77817 3.40781 9.8438C3.37969 9.90942 3.32344 10.1204 3.28594 10.3125L3.21094 10.6594L2.97656 10.7391C2.75625 10.8094 2.4375 10.9547 2.0625 11.1563C1.81875 11.2922 1.29844 11.7797 1.01719 12.136C0.810938 12.3938 0.595313 12.7782 0.370313 13.2891C0.239063 13.5985 0.1875 13.9969 0.1875 14.7563C0.1875 15.7219 0.290625 16.2422 0.567188 16.6875C0.590625 16.725 0.623438 16.7907 0.642188 16.8282C0.745313 17.0579 1.04063 17.4516 1.30781 17.7188C1.65469 18.0704 2.07656 18.4219 2.14688 18.4219C2.17031 18.4219 2.24063 18.4594 2.30156 18.511C2.3625 18.5579 2.49844 18.6235 2.60156 18.6563C2.70469 18.6891 2.83125 18.7407 2.88281 18.7735C3.02344 18.8579 3.53906 18.9891 3.9375 19.036C4.13906 19.0641 7.72031 19.0735 12.4453 19.0641L20.6016 19.05L20.9531 18.9422C21.1453 18.886 21.4125 18.7875 21.5484 18.7219C21.6797 18.661 21.8016 18.6094 21.8156 18.6094C21.8953 18.6094 22.5094 18.1407 22.7109 17.925C23.0859 17.5266 23.3906 17.1282 23.3906 17.0344C23.3906 17.0063 23.4188 16.9547 23.4563 16.9266C23.4938 16.8938 23.5406 16.8 23.5594 16.7204C23.5734 16.636 23.6156 16.5188 23.6531 16.4532C23.7703 16.2329 23.8594 15.6657 23.8594 15.1454C23.8594 14.5922 23.7516 13.9032 23.6438 13.7766C23.6063 13.7391 23.5781 13.6782 23.5781 13.6454C23.5781 13.5469 23.3813 13.2141 23.1 12.8344C22.95 12.6329 22.8281 12.4547 22.8281 12.436C22.8234 12.361 21.9188 11.7235 21.8203 11.7188C21.7922 11.7188 21.7406 11.6907 21.7125 11.6579C21.6797 11.6297 21.5531 11.5688 21.4313 11.5266L21.2109 11.4516L21.1547 11.0672C21.1266 10.8563 21.0891 10.6547 21.075 10.6172C21.0609 10.5797 21.0703 10.5469 21.0984 10.5469C21.1266 10.5469 21.1313 10.5235 21.1172 10.5C21.1031 10.4719 21.1125 10.4532 21.1406 10.4532C21.1688 10.4532 21.1828 10.4344 21.1641 10.411C21.15 10.3875 21.1594 10.3547 21.1875 10.336C21.2344 10.3079 21.5156 9.74067 21.5156 9.67505C21.5156 9.66098 21.5438 9.5813 21.5813 9.50161C21.6188 9.41723 21.675 9.23911 21.7031 9.10317L21.7594 8.85942H22.3266C22.8094 8.85942 22.9266 8.84536 23.1047 8.76098C23.7188 8.47036 23.9719 7.91723 23.7891 7.24223C23.7188 6.97973 23.6672 6.90004 23.4844 6.73598C23.1891 6.47348 23.0109 6.41723 22.3266 6.38911L21.7547 6.36567L21.6984 6.12192C21.6703 5.99067 21.6281 5.85942 21.6094 5.83598C21.5906 5.80786 21.5391 5.68129 21.4969 5.55004C21.4219 5.31567 21.1734 4.80942 21.0844 4.69692C21.0469 4.65473 21.1594 4.50942 21.5203 4.13442C22.0359 3.60473 22.125 3.43598 22.125 3.00942C22.125 2.22192 21.4125 1.63129 20.6391 1.77661C20.3297 1.83754 20.1234 1.98285 19.65 2.47036L19.2656 2.87348L19.0641 2.76567C18.6703 2.54535 18.3656 2.41411 18.0938 2.34379C17.7469 2.25004 17.7422 2.24536 17.7375 1.63598C17.7328 1.16254 17.7141 1.05942 17.6203 0.871918C17.5031 0.632854 17.1094 0.234417 16.9922 0.234417C16.9547 0.234417 16.9219 0.210979 16.9219 0.187542C16.9219 0.159418 16.7438 0.140667 16.4766 0.140667C16.2328 0.140667 16.0313 0.159418 16.0313 0.182856ZM17.2266 4.69692C17.4328 4.74848 17.6344 4.82348 17.6766 4.85629C17.7141 4.89379 17.7703 4.92192 17.7938 4.92192C17.9578 4.92661 18.7313 5.61567 18.8672 5.87348C18.9094 5.95786 18.9984 6.11723 19.0688 6.23442C19.1391 6.35161 19.2234 6.52973 19.2563 6.63286C19.35 6.93286 19.4062 7.58442 19.3781 7.92661L19.3453 8.24536L19.1438 8.10942C19.0359 8.02973 18.9234 7.96879 18.9 7.96879C18.8766 7.96879 18.8297 7.94067 18.8016 7.90317C18.7688 7.86567 18.6891 7.82348 18.6188 7.80473C18.5484 7.78598 18.4313 7.7438 18.3516 7.71098C18.1453 7.61723 17.6906 7.50004 17.3203 7.4438C16.8563 7.37817 15.7734 7.42505 15.5438 7.52348C15.375 7.59379 15.3563 7.59379 15.3188 7.52348C15.1688 7.26098 14.5641 6.68442 13.9922 6.25786C13.8188 6.13129 13.7016 6.01879 13.7297 6.00942C13.7578 6.00004 13.7719 5.97192 13.7531 5.94848C13.7391 5.92504 13.7531 5.90629 13.7766 5.90629C13.8047 5.90629 13.8281 5.88286 13.8281 5.85473C13.8281 5.76567 14.1516 5.40473 14.4094 5.20786C14.6391 5.02973 15.1078 4.75317 15.2109 4.73911C15.2391 4.73442 15.3422 4.70629 15.4453 4.67817C15.9938 4.52817 16.6078 4.53286 17.2266 4.69692ZM10.5188 7.45786C10.7531 7.49067 10.9688 7.52817 10.9922 7.54692C11.0203 7.56567 11.1188 7.59848 11.2172 7.61255C11.3813 7.64536 11.6719 7.76254 11.8594 7.87973C11.8969 7.90317 11.9766 7.94067 12.0375 7.96879C12.1453 8.01567 12.3984 8.18442 12.5063 8.28286C12.5391 8.31567 12.5859 8.34379 12.6 8.34379C12.6375 8.34379 12.9469 8.63442 13.0969 8.80317C13.1813 8.90161 13.1813 8.9063 13.05 9.07973C12.675 9.56723 12.6844 9.55317 12.6797 10.0313C12.6797 10.4579 12.6844 10.486 12.8297 10.6922C13.0406 10.9969 13.2234 11.1375 13.5188 11.2219C13.8516 11.3204 13.9875 11.3157 14.3344 11.1985C14.5453 11.1282 14.6625 11.0532 14.7891 10.9079C15.15 10.4954 15.3563 10.2985 15.5016 10.2375C15.5813 10.2 15.6609 10.1532 15.675 10.1297C15.6938 10.1063 15.7734 10.0688 15.8578 10.0547C15.9375 10.036 16.0359 9.99848 16.0734 9.97036C16.1625 9.89536 17.1375 9.90005 17.2125 9.97505C17.2453 10.0079 17.3016 10.0313 17.3438 10.0313C17.4797 10.0313 17.8594 10.2469 18.1219 10.4766C18.5109 10.8094 18.6469 11.1375 18.7078 11.8735C18.7313 12.1875 18.7875 12.6 18.8297 12.7922C18.9 13.0875 18.9375 13.1625 19.1156 13.3407C19.3969 13.6219 19.5328 13.6875 20.0484 13.7625C20.2875 13.8 20.5828 13.875 20.6953 13.9266C20.9109 14.0297 21.1594 14.2735 21.1172 14.3438C21.1031 14.3625 21.1219 14.3907 21.1547 14.4047C21.1922 14.4188 21.2531 14.5875 21.3 14.775C21.3656 15.061 21.375 15.1735 21.3328 15.3891C21.2438 15.8719 20.9813 16.2329 20.5781 16.4204L20.3672 16.5235H12.1406C4.40156 16.5235 3.90469 16.5188 3.77344 16.4438C3.69844 16.3969 3.61406 16.3594 3.59531 16.3594C3.50625 16.3594 3.09375 15.9938 2.95781 15.7922C2.77969 15.5391 2.625 15.061 2.625 14.775C2.625 14.5313 2.79375 13.95 2.8875 13.8704C2.925 13.8422 2.95312 13.7907 2.95312 13.7579C2.95312 13.5657 3.53438 13.1391 3.93281 13.0454C4.07813 13.0125 4.30313 12.9844 4.42969 12.9844C4.56094 12.9844 4.6875 12.9657 4.71094 12.9422C4.73906 12.9188 4.8375 12.8766 4.93125 12.8485C5.11875 12.7875 5.46094 12.4407 5.54063 12.2344C5.56406 12.1688 5.60625 11.9204 5.62969 11.6766C5.71406 10.8891 5.79375 10.5235 5.98594 10.1204C6.08906 9.90473 6.20156 9.6563 6.23906 9.57192C6.27656 9.49223 6.31875 9.42192 6.3375 9.42192C6.36094 9.42192 6.375 9.38442 6.375 9.34223C6.375 9.27192 6.69375 8.87348 6.97031 8.59692C7.26094 8.3063 8.31563 7.69223 8.64844 7.61723C8.72813 7.59848 8.84063 7.56567 8.90625 7.54223C9.22969 7.42505 9.94219 7.38754 10.5188 7.45786Z" fill="#73AE39"/>
<path d="M3.81943 20.5125C3.61787 20.5734 3.49131 20.6765 2.90068 21.2672C2.30068 21.8625 2.20693 21.975 2.14131 22.1906C2.04287 22.4953 2.03818 22.8047 2.13193 23.0578C2.22099 23.3203 2.51631 23.6578 2.70381 23.7234C2.78818 23.7516 2.85849 23.7937 2.85849 23.8172C2.85849 23.8406 3.06006 23.8594 3.30381 23.8594C3.54756 23.8594 3.74912 23.8406 3.74912 23.8172C3.74912 23.7937 3.79599 23.7562 3.85693 23.7375C3.91318 23.7234 4.27412 23.4 4.6538 23.0203C5.25849 22.425 5.35693 22.3078 5.41318 22.1062C5.56318 21.6 5.46005 21.1312 5.11787 20.8031C4.76162 20.4609 4.32568 20.3625 3.81943 20.5125Z" fill="#73AE39"/>
<path d="M7.6737 20.5219C7.45807 20.5969 6.98463 20.9812 6.70807 21.3047C6.64245 21.3797 6.48307 21.5531 6.3612 21.6844C6.01901 22.0547 5.94401 22.2281 5.94401 22.6406C5.93932 22.9359 5.95807 23.025 6.06588 23.2125C6.2112 23.4656 6.46432 23.7047 6.63307 23.7469C6.6987 23.7609 6.75026 23.7937 6.75026 23.8172C6.75026 23.8406 6.95182 23.8594 7.19557 23.8594C7.43932 23.8594 7.64088 23.8406 7.64088 23.8219C7.64088 23.7984 7.68307 23.7609 7.73463 23.7375C7.88932 23.6672 9.04244 22.5328 9.18776 22.3125C9.41276 21.9609 9.42213 21.3187 9.20182 21.0375C8.77526 20.5031 8.24557 20.325 7.6737 20.5219Z" fill="#73AE39"/>
<path d="M11.5641 20.5219C11.3344 20.6062 10.9782 20.8969 10.4626 21.4219C10.1204 21.7734 9.92818 22.0359 9.85318 22.2609C9.78287 22.4625 9.78756 22.8516 9.85787 23.0484C9.93756 23.2641 10.2469 23.6156 10.4344 23.7094C10.5235 23.7469 10.5938 23.7984 10.5938 23.8219C10.5938 23.8406 10.7954 23.8594 11.0391 23.8594C11.2829 23.8594 11.4844 23.8406 11.4844 23.8172C11.4844 23.7937 11.5407 23.7516 11.6157 23.7234C11.7891 23.6484 12.9938 22.4719 13.1157 22.2516C13.2001 22.1062 13.2188 21.9937 13.2188 21.675C13.2188 21.3375 13.2001 21.2531 13.1063 21.1031C12.7407 20.5359 12.1501 20.3109 11.5641 20.5219Z" fill="#73AE39"/>
<path d="M15.4084 20.5219C15.2209 20.5828 15.0663 20.7141 14.5178 21.2578C13.9647 21.8109 13.8381 21.9609 13.7725 22.1578C13.5663 22.7438 13.7772 23.4328 14.2413 23.6813C14.3491 23.7422 14.4381 23.8031 14.4381 23.8219C14.4381 23.8453 14.6397 23.8594 14.8834 23.8594C15.1272 23.8594 15.3288 23.8406 15.3288 23.8172C15.3288 23.7938 15.3803 23.7609 15.4413 23.7469C15.5022 23.7328 15.8725 23.4094 16.2616 23.0297C16.9131 22.3969 16.9788 22.3172 17.0491 22.0828C17.1334 21.7875 17.11 21.3188 16.9975 21.1078C16.96 21.0375 16.8381 20.8875 16.7256 20.7797C16.3928 20.461 15.8866 20.3625 15.4084 20.5219Z" fill="#73AE39"/>
<path d="M19.308 20.5125C19.1346 20.5688 18.9658 20.7047 18.3752 21.2813C17.9768 21.6703 17.6768 21.9844 17.7002 21.9844C17.7236 21.9844 17.7049 22.0172 17.658 22.05C17.4705 22.1953 17.4658 22.9359 17.658 23.2359C17.7752 23.4281 18.0986 23.7188 18.2205 23.7469C18.2814 23.7656 18.3283 23.7938 18.3283 23.8172C18.3283 23.8406 18.5299 23.8594 18.7736 23.8594C19.0174 23.8594 19.2189 23.8406 19.2189 23.8172C19.2189 23.7938 19.2658 23.7563 19.3174 23.7422C19.4533 23.7 20.7658 22.4578 20.7658 22.3734C20.7658 22.3406 20.7986 22.2984 20.8314 22.2844C20.9346 22.2469 21.0142 21.7828 20.9767 21.4781C20.9252 21.0563 20.5596 20.6391 20.1236 20.5078C19.8518 20.4235 19.5939 20.4235 19.308 20.5125Z" fill="#73AE39"/>
</svg>
