<svg width="24" height="24" viewBox="0 0 24 24" fill="none" xmlns="http://www.w3.org/2000/svg">
<path d="M10.1719 0.215643C8.84531 0.468767 7.5375 0.885956 6.67969 1.32658C6.00469 1.67814 4.725 2.51252 4.33594 2.85939C3.68437 3.44533 2.96719 4.17658 2.65312 4.59377C1.67344 5.87815 1.14375 6.84377 0.735937 8.06252C0.182812 9.71252 0.09375 10.261 0.09375 12.0235C0.09375 13.4813 0.145312 13.9407 0.421875 14.9766C1.02656 17.25 2.025 18.9563 3.69844 20.5875C4.37812 21.2532 4.60312 21.436 5.25937 21.8719C6.16406 22.4766 7.28437 23.0578 7.77656 23.1797C8.16094 23.2735 8.52656 23.2594 8.95312 23.1282C9.30469 23.025 9.7875 22.5422 9.93281 22.1438C10.0828 21.7547 10.1062 21.361 10.0078 21.0188C9.91406 20.6953 9.83906 20.5594 9.40312 19.9735C9.05625 19.5 8.44687 18.3375 8.20312 17.6766C7.76719 16.4907 7.39219 14.6625 7.35 13.5L7.33594 13.1953L9.79687 13.1719C12.0844 13.1485 12.2719 13.1438 12.4359 13.0594C12.6656 12.9469 12.9516 12.6141 13.0219 12.3844C13.0641 12.2485 13.0781 10.9641 13.0781 7.48127C13.0781 4.88908 13.0875 2.76564 13.1016 2.76564C13.1156 2.76564 13.1859 2.80314 13.2562 2.84533C13.9125 3.25783 14.6391 4.18596 15.1734 5.2969C15.7828 6.56721 16.1016 7.58909 16.3594 9.13127C16.4625 9.75471 16.575 10.0172 16.8328 10.2328C17.475 10.786 18.4687 10.425 18.6609 9.5719C18.7125 9.3469 18.7031 9.22502 18.5484 8.32971C18.3 6.85784 17.9344 5.69065 17.3437 4.45783C17.1891 4.13908 17.0625 3.87189 17.0625 3.85783C17.0625 3.84846 17.2031 3.93752 17.3812 4.0594C17.5547 4.18127 17.7891 4.34533 17.9016 4.42502C18.2109 4.63596 19.0031 5.40471 19.4016 5.89221C20.0578 6.67971 20.7516 7.90784 21.0422 8.78909C21.225 9.34221 21.4078 9.59534 21.7594 9.76877C22.4625 10.1203 23.2922 9.6469 23.3766 8.85002C23.3953 8.63909 23.3672 8.50315 23.1844 7.95471C22.6734 6.40784 21.6656 4.83752 20.3812 3.58127C19.5516 2.77033 19.3547 2.60627 18.5625 2.08127C17.0906 1.10627 15.7172 0.57658 13.725 0.210955C13.1391 0.103142 12.975 0.0937672 11.9203 0.0984554C10.9078 0.103142 10.6828 0.121893 10.1719 0.215643ZM10.7812 6.82034V10.875L9.06094 10.8657L7.33594 10.8516L7.35 10.5469C7.36875 10.0641 7.53281 8.87815 7.66406 8.26409C8.08594 6.26721 8.98125 4.39221 10.0266 3.33752C10.2562 3.10314 10.6922 2.76564 10.7672 2.76564C10.7766 2.76564 10.7812 4.58908 10.7812 6.82034ZM6.5625 4.34533C6.29531 4.8844 5.8875 5.91096 5.72344 6.46877C5.45625 7.38752 5.16094 9.0469 5.05781 10.2282L5.00156 10.875H3.71719C2.925 10.875 2.4375 10.8563 2.4375 10.8282C2.4375 10.7157 2.63437 9.77346 2.74687 9.37502C3.00469 8.42346 3.25781 7.84221 3.78281 7.00315C4.30312 6.17346 4.54219 5.86877 5.17969 5.22658C5.64844 4.75783 6.59531 3.98908 6.7125 3.98439C6.73125 3.98439 6.66094 4.14846 6.5625 4.34533ZM5.03437 13.5797C5.09062 14.3203 5.20781 15.15 5.3625 15.961C5.45156 16.3969 5.53594 16.8422 5.55469 16.9453C5.63906 17.461 6.37031 19.4063 6.66094 19.8985C6.71719 19.9922 6.75469 20.0766 6.74531 20.086C6.72656 20.1047 6.16875 19.7157 5.83594 19.4532C4.51406 18.4078 3.27187 16.5469 2.81719 14.9297C2.63906 14.3063 2.4375 13.4063 2.4375 13.2469C2.4375 13.1813 2.57812 13.1719 3.72187 13.1719H5.00156L5.03437 13.5797Z" fill="#73AE39"/>
<path d="M21.3748 10.9219C19.6779 11.0766 17.667 11.5688 16.5233 12.1125C13.9967 13.3078 12.2717 15.3141 11.9951 17.3719C11.8967 18.1313 12.0373 19.1813 12.3514 19.9782L12.4405 20.1938L12.2483 20.4469C11.6061 21.3 11.0061 22.2188 10.9217 22.4719C10.842 22.7157 10.8889 23.1094 11.0248 23.3532C11.0858 23.461 11.2358 23.6344 11.3576 23.7375C11.578 23.9203 11.6014 23.9297 11.9576 23.9485C12.2717 23.9625 12.3467 23.9485 12.5014 23.8547C12.7967 23.6813 12.8858 23.5828 13.3217 22.9219C14.367 21.3563 15.5529 20.0063 16.8045 18.9657C17.4233 18.4547 17.5358 18.3703 18.4686 17.7469C19.467 17.0766 19.5467 16.9782 19.5467 16.3922C19.5467 16.0969 19.5279 16.0219 19.4108 15.8344C19.1811 15.4735 18.7686 15.2344 18.3701 15.2344C18.1404 15.2344 17.742 15.4406 16.9826 15.9657C16.6545 16.1907 16.2889 16.4391 16.1717 16.5188C15.8904 16.7063 15.267 17.236 14.7233 17.7422C14.4795 17.9719 14.2733 18.136 14.2639 18.1078C14.2264 18.0047 14.3389 17.3578 14.4326 17.1047C14.6014 16.6594 15.1404 15.8906 15.5483 15.5203C16.242 14.8828 17.1748 14.3016 18.0467 13.9688C18.7076 13.7203 20.4139 13.336 21.3186 13.2422C21.6092 13.2094 21.6139 13.2094 21.5904 13.3172C21.5764 13.3781 21.5529 13.5563 21.5389 13.711C21.4779 14.3203 21.2529 15.4547 21.0654 16.125C20.8733 16.8141 20.4561 17.7047 19.9873 18.4266C19.3264 19.4485 18.1733 20.3485 17.3201 20.5032C16.3779 20.6766 15.9889 21.8016 16.6451 22.4578C16.9217 22.7344 17.1045 22.7953 17.5779 22.7672C19.017 22.6828 20.8873 21.3188 22.0592 19.5C22.4483 18.8953 22.8936 17.9578 23.0998 17.3203C23.7045 15.4125 23.9061 14.2594 23.9061 12.6656C23.9061 11.5688 23.8826 11.4656 23.592 11.1985C23.3108 10.936 23.1842 10.9031 22.4764 10.8938C22.1154 10.8891 21.6186 10.9031 21.3748 10.9219Z" fill="#73AE39"/>
</svg>
