<svg width="26" height="35" viewBox="0 0 26 35" fill="none" xmlns="http://www.w3.org/2000/svg">
<path d="M22.1218 7.27078H18.9616C18.9616 3.46934 16.1331 0.39035 12.6411 0.39035C9.14896 0.39035 6.32053 3.46934 6.32053 7.27078H3.16026C1.42212 7.27078 0 8.81888 0 10.711V31.3523C0 33.2444 1.42212 34.7925 3.16026 34.7925H22.1218C23.86 34.7925 25.2821 33.2444 25.2821 31.3523V10.711C25.2821 8.81888 23.86 7.27078 22.1218 7.27078ZM9.48079 14.1512C9.48079 15.0973 8.76973 15.8713 7.90066 15.8713C7.03159 15.8713 6.32053 15.0973 6.32053 14.1512V10.711H9.48079V14.1512ZM12.6411 3.83057C14.3792 3.83057 15.8013 5.37866 15.8013 7.27078H9.48079C9.48079 5.37866 10.9029 3.83057 12.6411 3.83057ZM18.9616 14.1512C18.9616 15.0973 18.2505 15.8713 17.3814 15.8713C16.5124 15.8713 15.8013 15.0973 15.8013 14.1512V10.711H18.9616V14.1512Z" fill="#121212"/>
</svg>
