<svg width="24" height="24" viewBox="0 0 24 24" fill="none" xmlns="http://www.w3.org/2000/svg">
<path d="M8.60808 0.58593C8.35965 0.674992 8.08777 0.928118 7.97527 1.16718C7.88152 1.37812 7.87683 1.45781 7.8534 3.90937L7.82996 6.43593L7.57215 6.22968C7.00027 5.77499 6.38621 5.42343 5.73465 5.17968C5.54715 5.10937 5.35027 5.03437 5.29871 5.01093C5.14402 4.94531 4.4784 4.77656 4.07996 4.70624C3.35809 4.57968 2.78621 4.54218 1.79715 4.55624C0.873713 4.57031 0.784651 4.57968 0.606526 4.67343C0.386213 4.79062 0.198713 4.99687 0.081526 5.24531C-0.030974 5.49374 -0.0262865 7.49999 0.090901 8.20312C0.615901 11.3531 2.03153 13.1672 4.68934 14.0859C5.45809 14.3531 6.70027 14.5641 7.53934 14.5734L7.8534 14.5781V18.5812C7.8534 22.5234 7.8534 22.5891 7.95183 22.8141C8.0784 23.1094 8.24246 23.2828 8.53308 23.4187L8.76746 23.5312H11.8893C15.2503 23.5312 15.2081 23.5359 15.5456 23.2875C15.6253 23.2266 15.7471 23.0859 15.8128 22.9687L15.9393 22.7578L15.9628 18.6797L15.9862 14.6016L16.3612 14.5781C16.6846 14.5547 16.7643 14.5312 16.9565 14.4C17.2846 14.175 17.43 13.8984 17.43 13.5094C17.43 13.2703 17.4018 13.1484 17.3221 13.0078C17.0971 12.6 16.8581 12.4594 16.3378 12.4219L15.9862 12.3984L15.9628 6.84374C15.9393 1.70624 15.9346 1.27968 15.8596 1.14374C15.7471 0.937492 15.5315 0.731243 15.3206 0.628117C15.1518 0.543743 14.9831 0.539055 11.955 0.534367C9.49871 0.52968 8.72996 0.539055 8.60808 0.58593ZM13.7503 7.56093L13.7596 12.375L11.9221 12.3656L10.08 12.3516L10.0659 7.59374C10.0612 4.97812 10.0659 2.8078 10.08 2.77499C10.094 2.72812 10.4878 2.71874 11.9175 2.72812L13.7362 2.74218L13.7503 7.56093ZM3.32059 6.82031C4.4409 6.98437 5.29871 7.29843 6.00652 7.80468C7.04715 8.54999 7.68933 10.0078 7.82996 11.9391L7.86277 12.375H7.60027C7.29559 12.375 6.41434 12.2578 5.9784 12.1594C5.3034 12.0047 4.64715 11.7281 4.12684 11.3766C3.00652 10.6172 2.35027 9.19218 2.20027 7.18124L2.16746 6.74999H2.50496C2.68777 6.74999 3.0534 6.78281 3.32059 6.82031ZM13.7596 17.9766V21.3281L11.9221 21.3187L10.08 21.3047L10.0659 18.0234C10.0612 16.2187 10.0659 14.7141 10.08 14.6812C10.094 14.6391 10.5112 14.625 11.9315 14.625H13.7596V17.9766Z" fill="#73AE39"/>
</svg>
