<svg width="48" height="48" viewBox="0 0 48 48" fill="none" xmlns="http://www.w3.org/2000/svg">
<path d="M21.6561 0.0655212C17.1092 0.524895 12.778 2.25927 9.18737 5.04364C8.09049 5.89677 6.22487 7.73427 5.31549 8.85927C2.69987 12.103 0.99362 15.8905 0.26237 20.0999C-0.00950521 21.7124 -0.0845052 25.2655 0.13112 26.9061C0.534245 29.9249 1.27487 32.353 2.59674 34.9499C3.70299 37.1343 4.99674 38.9249 6.79674 40.7718C10.678 44.7561 15.4499 47.128 21.0936 47.8686C22.7249 48.0749 26.278 48.0093 27.8999 47.728C30.3561 47.3061 32.4467 46.6311 34.6405 45.553C36.9655 44.4093 38.8405 43.0874 40.7717 41.203C44.4936 37.5749 46.8374 33.103 47.728 27.8999C48.0092 26.2686 48.0749 22.828 47.8686 21.0936C47.0061 14.053 43.1155 7.79052 37.1717 3.88115C34.0874 1.85614 30.6561 0.599895 26.9999 0.140518C25.9405 0.00926971 22.6311 -0.0376053 21.6561 0.0655212ZM30.4686 12.2249C32.6155 12.8155 34.2842 14.1749 35.203 16.078C35.9717 17.6718 35.953 17.4843 35.953 23.9999C35.953 30.4593 35.9717 30.2999 35.2499 31.828C34.5467 33.3468 33.4311 34.4718 31.9217 35.203C30.328 35.9718 30.5155 35.953 23.9999 35.953C17.4842 35.953 17.6717 35.9718 16.078 35.203C14.5686 34.4718 13.453 33.3468 12.7499 31.828C12.028 30.2999 12.0467 30.4593 12.0467 23.9999C12.0467 17.5405 12.028 17.6999 12.7499 16.1718C13.7905 13.9311 15.9561 12.3655 18.3655 12.0936C18.7592 12.0561 21.5061 12.028 24.4686 12.0374C29.3061 12.0561 29.9249 12.0749 30.4686 12.2249Z" fill="white"/>
<path d="M18.2817 14.4468C16.4817 14.7468 14.8692 16.3124 14.4848 18.1593C14.2879 19.0687 14.2879 28.9124 14.4754 29.8124C14.6817 30.7968 15.0567 31.4718 15.7879 32.2124C16.5285 32.9437 17.2035 33.3187 18.1879 33.5249C19.0879 33.7124 28.9317 33.7124 29.8316 33.5249C30.7973 33.3187 31.4629 32.9437 32.2129 32.203C32.9535 31.4718 33.3098 30.8249 33.5254 29.8312C33.7129 28.9124 33.7129 19.078 33.516 18.1593C33.1223 16.2749 31.5191 14.7374 29.6254 14.4374C28.8754 14.3249 19.0129 14.3343 18.2817 14.4468ZM31.0223 16.5655C31.4535 16.8843 31.6879 17.3249 31.6879 17.8124C31.6879 19.1999 29.8598 19.7812 29.0629 18.6562C28.8379 18.3374 28.7254 17.7655 28.8191 17.3999C28.8941 17.0812 29.3254 16.5937 29.6723 16.4437C30.0379 16.2749 30.7035 16.3312 31.0223 16.5655ZM24.8723 17.9155C28.116 18.4124 30.5254 21.5155 30.1035 24.6562C29.7191 27.553 27.6285 29.6812 24.7692 30.0937C22.0504 30.4968 19.2379 28.7905 18.2442 26.1468C16.9035 22.5843 19.1535 18.6374 22.9223 17.953C23.766 17.7937 24.0473 17.7937 24.8723 17.9155Z" fill="white"/>
<path d="M22.9689 20.3062C20.1565 21.0655 19.219 24.6749 21.3002 26.7187C23.5221 28.903 27.2533 27.6937 27.7783 24.6187C28.2471 21.8718 25.6877 19.5749 22.9689 20.3062Z" fill="white"/>
</svg>
