<svg width="32" height="29" viewBox="0 0 32 29" fill="none" xmlns="http://www.w3.org/2000/svg">
<path d="M7.88444 0.0402131C5.88994 0.290307 4.22056 1.10937 2.80753 2.5349C1.5383 3.81038 0.775509 5.16089 0.337844 6.91781C-0.437448 9.9627 0.125264 12.9638 1.98847 15.7836C3.18267 17.5906 4.727 19.2475 7.55932 21.7734C9.36 23.3803 14.8558 28.0695 15.1247 28.2258C15.3748 28.3759 15.4685 28.3947 16 28.3947C16.5315 28.3947 16.6252 28.3759 16.8753 28.2258C17.1442 28.0695 22.6525 23.374 24.4407 21.7734C27.2855 19.2349 28.8173 17.5843 30.0115 15.7836C31.8747 12.9638 32.4374 9.9627 31.6622 6.91781C31.2245 5.16089 30.4617 3.81038 29.1925 2.5349C27.9295 1.26568 26.579 0.534149 24.8096 0.159008C23.9217 -0.0285628 22.2836 -0.0473199 21.5083 0.127746C19.345 0.596673 17.6881 1.67833 16.1751 3.60406L16 3.82289L15.8312 3.60406C14.3369 1.71584 12.705 0.634187 10.623 0.159008C10.004 0.0152037 8.57845 -0.0473199 7.88444 0.0402131ZM9.97273 1.94718C11.7484 2.2598 13.2802 3.28519 14.4932 4.97958C14.6995 5.27344 14.9559 5.62357 15.0559 5.76737C15.5186 6.41762 16.4814 6.41762 16.9441 5.76737C17.0441 5.62357 17.3005 5.27344 17.5068 4.97958C19.1637 2.6662 21.4708 1.57829 23.9843 1.92217C26.7728 2.30357 28.9486 4.2543 29.7802 7.12413C30.4367 9.39374 30.1491 11.7759 28.9549 13.9204C27.9545 15.7149 26.2851 17.5968 23.3778 20.2041C21.971 21.4608 16.0563 26.5502 16 26.5502C15.9375 26.5502 10.0478 21.4795 8.62222 20.2041C4.15178 16.1963 2.38862 13.6954 1.96346 10.763C1.68835 8.86854 2.08225 6.83027 3.03886 5.22342C4.4769 2.80376 7.27796 1.47826 9.97273 1.94718Z" fill="black"/>
</svg>
