<svg width="32" height="29" viewBox="0 0 32 29" fill="none" xmlns="http://www.w3.org/2000/svg">
<path d="M7.88444 0.169606C5.88994 0.419701 4.22056 1.23876 2.80753 2.6643C1.5383 3.93978 0.775509 5.29029 0.337844 7.0472C-0.437448 10.0921 0.125264 13.0932 1.98847 15.913C3.18267 17.72 4.727 19.3768 7.55932 21.9028C9.36 23.5097 14.8558 28.1989 15.1247 28.3552C15.3748 28.5053 15.4686 28.524 16 28.524C16.5315 28.524 16.6252 28.5053 16.8753 28.3552C17.1442 28.1989 22.6525 23.5034 24.4407 21.9028C27.2855 19.3643 28.8173 17.7137 30.0115 15.913C31.8747 13.0932 32.4374 10.0921 31.6622 7.0472C31.2245 5.29029 30.4617 3.93978 29.1925 2.6643C27.9295 1.39507 26.579 0.663542 24.8096 0.288401C23.9217 0.10083 22.2836 0.0820719 21.5083 0.257138C19.345 0.726065 17.6881 1.80772 16.1751 3.73345L16 3.95228L15.8312 3.73345C14.3369 1.84524 12.705 0.76358 10.623 0.288401C10.004 0.144596 8.57845 0.0820732 7.88444 0.169606Z" fill="#FF6565"/>
</svg>
