<svg width="24" height="24" viewBox="0 0 24 24" fill="none" xmlns="http://www.w3.org/2000/svg">
<path d="M17.0398 0.0516033C15.1976 0.187542 13.5476 0.590666 11.7898 1.33129C10.8008 1.74379 9.3992 2.56879 9.1742 2.8641C9.10857 2.95317 8.86013 3.48285 8.62107 4.04535L8.18513 5.06254L8.06795 4.95004C7.7867 4.68286 7.27576 4.60785 6.91482 4.78129C6.61013 4.93129 5.67732 6.00004 4.95544 7.04067C2.22263 10.9547 1.21951 15.9985 2.70544 18.3188L2.86482 18.5766L2.54138 19.3079C2.35857 19.711 2.12888 20.2407 2.02576 20.4844C1.64607 21.3797 0.96638 23.2454 0.999193 23.2829C1.02732 23.3063 2.96794 23.9532 2.97732 23.9391C2.98201 23.9344 3.08982 23.6438 3.21169 23.2969C3.56326 22.2985 4.51951 19.95 4.61794 19.8375C4.62732 19.8282 4.81013 19.8657 5.02576 19.9219C5.58357 20.0672 6.64763 20.1047 7.31326 19.9969C9.61013 19.6219 12.2117 18.2672 15.0008 15.9891C16.4258 14.8266 18.5398 12.7313 18.8117 12.211C18.9476 11.9532 18.9476 11.5125 18.807 11.2782C18.7508 11.1797 18.7039 11.0954 18.7039 11.086C18.7039 11.0813 18.8914 11.0625 19.1164 11.0532C19.6976 11.0344 19.8851 10.9125 20.2836 10.3125C21.3851 8.65786 22.4164 5.68598 22.9273 2.68598C23.1008 1.6641 23.1195 1.2141 22.9976 0.984417C22.7867 0.585979 22.557 0.454729 21.8539 0.328167C20.2086 0.0328541 18.5539 -0.0608959 17.0398 0.0516033ZM20.2695 2.22192C20.5742 2.25942 20.832 2.29692 20.8367 2.30629C20.8648 2.33442 20.5883 3.67504 20.4242 4.33598C20.0351 5.8641 19.4773 7.40629 18.943 8.41411L18.6758 8.92973L18.0898 8.98598C16.9929 9.09848 16.0742 9.31411 14.8836 9.73598C14.2789 9.9516 14.0961 10.036 13.9367 10.186C13.5289 10.561 13.4867 11.1704 13.8383 11.6016C14.0633 11.8735 14.2929 11.9579 14.9539 12.0282C15.2773 12.061 15.657 12.1125 15.7976 12.1454L16.0554 12.2016L15.5398 12.6891C14.6961 13.4907 13.2336 14.7563 12.9523 14.9204C12.9242 14.9391 12.1789 14.775 11.3023 14.5547C10.4258 14.3344 9.68513 14.1563 9.6617 14.1563C9.6242 14.1563 9.14138 15.9938 9.14138 16.1391C9.14138 16.1766 9.36638 16.2516 9.78826 16.3547C10.1398 16.4391 10.4492 16.5282 10.4726 16.5516C10.4961 16.5704 10.1773 16.7532 9.76951 16.9547C8.37732 17.6438 7.32263 17.9532 6.34763 17.9532C5.89295 17.9532 5.62576 17.9204 5.62576 17.8594C5.62576 17.8407 5.78982 17.5313 5.99607 17.175C8.06326 13.5235 10.5945 10.4719 13.3601 8.29223C14.7429 7.20004 16.3461 6.27192 17.743 5.75629C17.9492 5.68129 18.1226 5.61098 18.132 5.6016C18.1555 5.58286 17.532 3.69379 17.4898 3.64692C17.4523 3.60473 16.7867 3.84848 16.0695 4.16723C12.7273 5.65317 9.46482 8.45629 6.6242 12.2813C5.9117 13.2469 4.96951 14.6766 4.40232 15.6657C4.28982 15.8672 4.18201 16.0313 4.16326 16.0313C4.10232 16.0313 4.12576 14.911 4.19138 14.3907C4.44919 12.4829 5.29763 10.35 6.53045 8.49379C6.8117 8.0766 7.04607 7.73442 7.05545 7.73442C7.06482 7.73442 7.15857 7.87973 7.2617 8.05317C7.55701 8.56411 7.78201 8.74223 8.18045 8.79848C8.50388 8.84067 8.7992 8.73754 9.04763 8.48911C9.22576 8.30629 9.29138 8.18911 9.44138 7.75785C9.74138 6.90942 10.1586 5.83598 10.5101 5.0016L10.8429 4.2141L11.2226 3.9891C12.8679 3.00004 14.8789 2.35785 16.9554 2.15629C17.5461 2.10004 19.6133 2.14223 20.2695 2.22192Z" fill="#B677CB"/>
</svg>
