<svg width="48" height="48" viewBox="0 0 48 48" fill="none" xmlns="http://www.w3.org/2000/svg">
<path d="M20.9409 0.12661C15.3909 0.857861 10.469 3.35161 6.5784 7.42973C3.21278 10.9547 0.990904 15.436 0.222154 20.236C-0.0215964 21.736 -0.0778464 25.2891 0.119029 26.8922C1.03778 34.4016 5.44403 41.0485 12.0347 44.8454C14.5097 46.2704 17.1347 47.2079 20.0878 47.7235C21.719 48.0047 25.1784 48.0704 26.9034 47.8454C37.2347 46.5516 45.5034 38.8922 47.5659 28.7204C48.0065 26.5641 48.119 23.2454 47.8472 20.986C46.4972 10.1391 37.8347 1.47661 26.9878 0.12661C25.5628 -0.042141 22.2909 -0.042141 20.9409 0.12661ZM30.3628 13.2985V15.6422H28.6753C26.0315 15.6422 26.0503 15.6235 26.0503 18.2204V19.9547H28.2065H30.3628V20.2079C30.3628 20.4797 30.0347 23.7235 29.9409 24.4266L29.8847 24.8297H27.9628H26.0503V31.7672V38.7047H23.1909H20.3315V31.7672V24.8297H18.9253H17.519V22.3922V19.9547H18.9253H20.3315V17.986C20.3315 15.661 20.444 14.9391 20.9878 13.7954C21.4659 12.811 22.2065 12.0516 23.1628 11.5829C24.2597 11.0485 24.8128 10.9735 27.7659 10.9641L30.3628 10.9547V13.2985Z" fill="white"/>
</svg>
