<svg width="24" height="24" viewBox="0 0 24 24" fill="none" xmlns="http://www.w3.org/2000/svg">
<path d="M11.5547 0.168772C10.5563 0.32346 9.61406 1.01721 9.16875 1.93127C8.95781 2.35783 8.85 2.70471 8.78906 3.15002L8.76094 3.37033L7.29844 3.3844C5.90156 3.39846 5.82656 3.40315 5.64375 3.50158C5.40469 3.62815 5.1375 3.92346 5.06719 4.12971C5.00156 4.34065 3 15.6563 3 15.8297C3 16.0828 3.15 16.4156 3.35156 16.6172C3.73125 16.9969 3.01875 16.9688 12 16.9688C20.9813 16.9688 20.2688 16.9969 20.6484 16.6172C20.8547 16.4156 21 16.0828 21 15.825C21 15.6 18.5766 4.14846 18.4969 3.99846C18.4125 3.82971 18.1641 3.59533 17.9531 3.48752C17.8078 3.40783 17.6531 3.39846 16.5422 3.3844L15.2906 3.37033L15.2578 3.10315C15.0938 1.78127 14.1328 0.632833 12.8906 0.262522C12.6328 0.182835 11.8219 0.126583 11.5547 0.168772ZM12.5813 1.86096C13.0688 2.0344 13.5516 2.63908 13.6266 3.16408L13.6547 3.37502H12.0234H10.3922L10.4203 3.17346C10.5094 2.54065 11.0578 1.94533 11.7047 1.78127C11.9344 1.72502 12.2906 1.75783 12.5813 1.86096ZM16.5188 5.79846C16.5328 5.84533 16.9453 7.80002 17.4375 10.1485C17.9297 12.4922 18.3469 14.461 18.3609 14.5172L18.3844 14.625H11.9766H5.56875L5.59219 14.5172C5.60625 14.461 5.9625 12.4594 6.38438 10.0688L7.14844 5.71877H11.8219C16.2328 5.71877 16.4953 5.72346 16.5188 5.79846Z" fill="#B677CB"/>
<path d="M9.35507 7.9875C9.08789 8.08594 8.84882 8.30156 8.71757 8.55938C8.56758 8.85 8.55351 9.35156 8.68945 9.60938C8.80664 9.83438 11.0801 12.1172 11.3426 12.2719C11.5301 12.3844 11.6004 12.3984 11.9988 12.3984C12.3973 12.3984 12.4676 12.3844 12.6551 12.2719C12.9176 12.1172 15.191 9.83438 15.3035 9.61406C15.3457 9.52969 15.3926 9.34688 15.4066 9.21094C15.4957 8.3625 14.6847 7.725 13.8691 7.99219C13.6441 8.06719 13.5223 8.17031 12.8051 8.87344L11.9988 9.675L11.2113 8.89688C10.7801 8.47031 10.3535 8.08594 10.2644 8.03906C10.0488 7.92656 9.58476 7.90313 9.35507 7.9875Z" fill="#B677CB"/>
<path d="M0.997886 19.4906C-0.239613 19.9219 -0.342738 21.6281 0.833824 22.2047L1.10101 22.3359H11.9994H22.8979L23.1135 22.2375C23.4276 22.0922 23.6947 21.8297 23.8447 21.525C23.9572 21.3 23.976 21.1969 23.976 20.8828C23.976 20.5688 23.9572 20.4656 23.8447 20.2406C23.6947 19.9359 23.4276 19.6734 23.1135 19.5281L22.8979 19.4297L12.0698 19.4203C1.77132 19.4109 1.22757 19.4109 0.997886 19.4906Z" fill="#B677CB"/>
</svg>
