<svg width="683" height="607" viewBox="0 0 683 607" fill="none" xmlns="http://www.w3.org/2000/svg">
<path d="M168.267 1.66669C125.734 7.00002 90.1335 24.4667 60.0002 54.8667C32.9335 82.0667 16.6669 110.867 7.33353 148.333C-9.19981 213.267 2.8002 277.267 42.5335 337.4C68.0002 375.933 100.934 411.267 161.334 465.133C199.734 499.4 316.934 599.4 322.667 602.733C328 605.933 330 606.333 341.334 606.333C352.667 606.333 354.667 605.933 360 602.733C365.734 599.4 483.2 499.267 521.334 465.133C582 411 614.667 375.8 640.134 337.4C679.867 277.267 691.867 213.267 675.334 148.333C666 110.867 649.734 82.0667 622.667 54.8667C595.734 27.8 566.934 12.2 529.2 4.20001C510.267 0.200012 475.334 -0.200008 458.8 3.53333C412.667 13.5333 377.334 36.6 345.067 77.6667L341.334 82.3334L337.734 77.6667C305.867 37.4 271.067 14.3333 226.667 4.20001C213.467 1.13335 183.067 -0.19998 168.267 1.66669Z" fill="#FF9595"/>
</svg>
