<svg width="24" height="24" viewBox="0 0 24 24" fill="none" xmlns="http://www.w3.org/2000/svg">
<path d="M17.1187 0.0656242C16.9828 0.0984364 16.7297 0.196875 16.5562 0.28125C16.2656 0.426561 15.7266 0.951561 8.96719 7.70625C4.96875 11.7047 1.66406 15.0375 1.62656 15.1172C1.55625 15.2625 0 22.8234 0 23.025C0 23.5312 0.46875 24 0.975 24C1.03594 24 1.28906 23.9578 1.5375 23.9062C1.79062 23.8594 3.08906 23.5922 4.42969 23.3203C5.77031 23.0484 7.28906 22.7391 7.80469 22.6359C8.43281 22.5094 8.80312 22.4109 8.92969 22.3359C9.19687 22.1766 23.4328 7.90781 23.6156 7.6125C23.9484 7.07812 24.0703 6.37969 23.9344 5.79844C23.7703 5.10469 23.7656 5.09531 21.3562 2.68125C19.2281 0.543749 19.1344 0.454687 18.7734 0.276562C18.2156 0 17.6766 -0.0656261 17.1187 0.0656242ZM17.8969 2.03437C18.1172 2.15156 21.975 6.05625 22.0078 6.19687C22.0266 6.27187 22.0312 6.375 22.0125 6.43125C21.9984 6.49219 21.6234 6.90469 21.1781 7.34531L20.3672 8.15625L18.1031 5.89219L15.8437 3.63281L16.6781 2.79844C17.5687 1.9125 17.6156 1.88437 17.8969 2.03437ZM15.2344 5.83594L16.0078 6.60938L10.7344 11.8828L5.46094 17.1562L4.67812 16.3734L3.89062 15.5859L9.15 10.3266C12.0469 7.42969 14.4234 5.0625 14.4375 5.0625C14.4516 5.0625 14.8078 5.40937 15.2344 5.83594ZM18.1875 8.78906L18.9609 9.5625L13.6875 14.8359L8.41406 20.1094L7.63125 19.3266L6.84375 18.5391L12.1031 13.2797C15 10.3828 17.3766 8.01562 17.3906 8.01562C17.4047 8.01562 17.7609 8.3625 18.1875 8.78906ZM6.40312 20.8969C6.375 20.9203 2.28281 21.75 2.26406 21.7359C2.25469 21.7219 2.82656 18.8344 3.02812 17.9109L3.10312 17.5641L4.7625 19.2234C5.67187 20.1328 6.4125 20.8875 6.40312 20.8969Z" fill="#B677CB"/>
</svg>
