<svg width="48" height="48" viewBox="0 0 48 48" fill="none" xmlns="http://www.w3.org/2000/svg">
<g clip-path="url(#clip0_202_221)">
<path opacity="0.992" fill-rule="evenodd" clip-rule="evenodd" d="M21.8906 -0.046875C23.2969 -0.046875 24.7031 -0.046875 26.1094 -0.046875C34.5135 0.973866 40.8416 5.13012 45.0938 12.4219C46.6589 15.3723 47.612 18.4972 47.9531 21.7969C47.9531 23.2031 47.9531 24.6094 47.9531 26.0156C46.7827 35.4194 41.9077 42.1225 33.3281 46.125C30.9671 47.0902 28.5296 47.6996 26.0156 47.9531C24.6094 47.9531 23.2031 47.9531 21.7969 47.9531C12.2282 46.7086 5.49382 41.6773 1.59375 32.8594C0.752897 30.6682 0.206022 28.4182 -0.046875 26.1094C-0.046875 24.6719 -0.046875 23.2343 -0.046875 21.7969C0.872529 13.8977 4.65378 7.78832 11.2969 3.46875C14.5708 1.49723 18.102 0.32535 21.8906 -0.046875ZM21.3281 15.2344C24.8682 15.1597 28.3995 15.3003 31.9219 15.6562C33.4866 15.9096 34.6272 16.7377 35.3438 18.1406C36.1563 21.9844 36.1563 25.8281 35.3438 29.6719C34.8871 30.7847 34.0902 31.5503 32.9531 31.9688C32.6197 32.1007 32.2759 32.1945 31.9219 32.25C26.4484 32.8383 20.9796 32.807 15.5156 32.1562C13.6674 31.6838 12.6205 30.512 12.375 28.6406C11.889 25.1613 11.9514 21.6925 12.5625 18.2344C13.0658 17.0127 13.9564 16.2158 15.2344 15.8438C15.5129 15.7693 15.7942 15.7068 16.0781 15.6562C17.8405 15.4879 19.5906 15.3472 21.3281 15.2344Z" fill="white"/>
<path opacity="0.961" fill-rule="evenodd" clip-rule="evenodd" d="M21.0469 19.3594C23.6155 20.8162 26.1468 22.3474 28.6406 23.9531C26.1329 25.5274 23.6172 27.0899 21.0938 28.6406C21.0469 25.5471 21.0312 22.4533 21.0469 19.3594Z" fill="white"/>
</g>
<defs>
<clipPath id="clip0_202_221">
<rect width="48" height="48" fill="white"/>
</clipPath>
</defs>
</svg>
