<svg width="24" height="24" viewBox="0 0 24 24" fill="none" xmlns="http://www.w3.org/2000/svg">
<path d="M11.5455 0.0843744C11.2502 0.192187 11.0064 0.370312 10.8236 0.623437C10.5424 1.0125 10.5471 0.91875 10.5471 5.10469V8.925L9.87676 8.25937C9.07988 7.47187 8.92988 7.38281 8.36738 7.38281C8.05332 7.38281 7.9502 7.40156 7.7252 7.51406C7.20488 7.77187 6.91895 8.22656 6.91426 8.8125C6.91426 9.47344 6.84863 9.38906 9.11269 11.6625C10.5611 13.1203 11.1986 13.7297 11.3674 13.8187C11.5689 13.9266 11.658 13.9453 12.0236 13.9453C12.3893 13.9453 12.4783 13.9266 12.6799 13.8187C12.8486 13.7297 13.4861 13.1203 14.9346 11.6625C17.1986 9.38906 17.133 9.47344 17.133 8.8125C17.1283 8.22656 16.8424 7.77187 16.3221 7.51406C16.0971 7.40156 15.9939 7.38281 15.6799 7.38281C15.1174 7.38281 14.9674 7.47187 14.1705 8.25937L13.5002 8.925L13.4908 5.01094L13.4768 1.10156L13.3455 0.834374C13.0221 0.173437 12.2252 -0.159375 11.5455 0.0843744Z" fill="#B677CB"/>
<path d="M0.997886 14.9437C-0.239613 15.375 -0.342738 17.0812 0.833824 17.6578L1.10101 17.7891H11.9994H22.8979L23.1135 17.6906C23.4276 17.5453 23.6947 17.2828 23.8447 16.9781C23.9572 16.7531 23.976 16.65 23.976 16.3359C23.976 16.0219 23.9572 15.9187 23.8447 15.6937C23.6947 15.3891 23.4276 15.1266 23.1135 14.9812L22.8979 14.8828L12.0698 14.8734C1.77132 14.8641 1.22757 14.8641 0.997886 14.9437Z" fill="#B677CB"/>
<path d="M0.951654 18.7875C0.506342 18.9468 0.159467 19.3125 0.0422797 19.7578C-0.0749078 20.189 0.0985297 20.7984 0.450092 21.1593C0.670404 21.3843 0.857904 21.4968 1.45322 21.7593C4.07822 22.9218 6.88134 23.639 9.86728 23.9156C10.7204 23.9953 13.2798 23.9953 14.1329 23.9156C17.1188 23.639 19.922 22.9218 22.547 21.7593C23.3579 21.4031 23.6157 21.2015 23.8501 20.7234C24.0188 20.3718 24.0329 19.8187 23.8688 19.514C23.7048 19.2046 23.5032 18.9984 23.2126 18.8578C22.9876 18.7453 22.8891 18.7265 22.5704 18.7265C22.2095 18.7312 22.1673 18.7406 21.4126 19.0687C18.1454 20.4843 14.9907 21.1078 11.4845 21.0328C8.3204 20.9625 5.59228 20.3625 2.5829 19.0687C1.6829 18.6843 1.3829 18.6328 0.951654 18.7875Z" fill="#B677CB"/>
</svg>
