<svg width="48" height="48" viewBox="0 0 48 48" fill="none" xmlns="http://www.w3.org/2000/svg">
<path d="M21.6566 0.0655212C17.1098 0.524895 12.7785 2.25927 9.18789 5.04364C8.09101 5.89677 6.22539 7.73427 5.31601 8.85927C2.64414 12.1686 0.93789 16.0311 0.216016 20.3905C-0.0277344 21.8718 -0.0277344 26.128 0.216016 27.6093C1.10664 32.9811 3.44101 37.5186 7.22851 41.203C11.0816 44.953 15.6473 47.1468 21.0941 47.8686C22.7254 48.0749 26.2785 48.0093 27.9004 47.728C30.3566 47.3061 32.4473 46.6311 34.641 45.553C36.966 44.4093 38.841 43.0874 40.7723 41.203C44.5129 37.5561 46.8379 33.1218 47.7285 27.8999C48.0098 26.2686 48.0754 22.828 47.8691 21.0936C47.0066 14.053 43.116 7.79052 37.1723 3.88115C34.0879 1.85614 30.6566 0.599895 27.0004 0.140518C25.941 0.00926971 22.6316 -0.0376053 21.6566 0.0655212ZM29.2129 14.1468C29.916 14.278 30.6941 14.5968 31.191 14.953C32.1285 15.6186 32.1285 15.6186 33.0191 15.328C33.441 15.1874 34.0879 14.9249 34.4348 14.7468C35.0816 14.428 35.2504 14.4186 35.2504 14.7093C35.2504 14.9905 34.7066 15.9843 34.3035 16.4436C34.0879 16.6874 33.9379 16.903 33.966 16.9311C33.9941 16.9593 34.3973 16.8561 34.8566 16.6968C35.316 16.5374 35.7379 16.4061 35.8035 16.4061C36.1785 16.4061 35.5973 17.2686 34.3879 18.478L33.6004 19.2655L33.4879 20.578C33.3473 22.1436 33.1879 22.978 32.766 24.2436C31.1066 29.2405 27.066 32.7655 21.891 33.7311C20.5879 33.9655 18.0566 33.9468 16.7348 33.6749C15.1504 33.3561 13.1629 32.6249 12.3754 32.0624C12.066 31.8374 12.0098 31.5468 12.2629 31.4249C12.3473 31.378 12.9473 31.3124 13.5941 31.2843C14.466 31.2468 14.9816 31.1718 15.6098 30.9936C16.4066 30.7593 18.3754 29.8593 18.3754 29.728C18.3754 29.6999 18.0754 29.578 17.7098 29.4561C16.8098 29.1749 16.0598 28.7061 15.4316 28.0311C14.8879 27.4311 14.1848 26.1561 14.2973 25.9686C14.3535 25.8843 14.5504 25.8655 14.9629 25.903C15.291 25.9405 15.5629 25.9311 15.5629 25.8936C15.5629 25.8561 15.366 25.7249 15.1223 25.5936C14.466 25.2468 13.6035 24.3374 13.2004 23.5686C12.6941 22.603 12.3848 21.1218 12.6566 20.953C12.7129 20.9249 13.0223 20.9999 13.3504 21.1311C13.6879 21.2624 14.0066 21.3749 14.0629 21.3749C14.1191 21.3749 13.9785 21.1311 13.7535 20.8311C12.9566 19.8093 12.6566 18.928 12.6566 17.6249C12.6566 16.7436 12.741 16.3405 13.0973 15.5343C13.266 15.1593 13.3879 14.9999 13.5098 14.9999C13.6129 14.9999 13.6879 15.0374 13.6879 15.0749C13.6879 15.2436 15.5816 17.0155 16.3223 17.5499C17.2973 18.2436 18.7879 19.003 19.9691 19.3968C20.8691 19.7061 22.9129 20.0999 23.1285 20.0249C23.2129 19.9874 23.2504 19.7624 23.2504 19.3405C23.2598 17.9155 23.7941 16.5468 24.7129 15.6093C25.8848 14.4186 27.6379 13.8468 29.2129 14.1468Z" fill="white"/>
</svg>
