<svg width="125" height="58" viewBox="0 0 125 58" fill="none" xmlns="http://www.w3.org/2000/svg">
<path d="M0 12.1681H7.74336V57.0796H0V12.1681Z" fill="#7D3F92"/>
<path d="M105.088 12.1681H112.832V44.9115H105.088V12.1681Z" fill="black"/>
<path d="M117.257 0H125V44.9115H117.257V0Z" fill="black"/>
<path d="M7.74336 49.3363H112.832V57.0796H7.74336V49.3363Z" fill="#7D3F92"/>
<path d="M12.1681 0H117.257V7.74336H12.1681V0Z" fill="black"/>
<path d="M19.9115 12.1681H30.9735V19.9115H19.9115V12.1681Z" fill="black"/>
<path d="M19.9115 37.1681H30.9735V44.9115H19.9115V37.1681Z" fill="black"/>
<path d="M50.885 25H61.9469V32.7434H50.885V25Z" fill="black"/>
<path d="M81.8584 12.1681H92.9204V19.9115H81.8584V12.1681Z" fill="black"/>
<path d="M81.8584 24.5575H92.9204V32.3009H81.8584V24.5575Z" fill="black"/>
<path d="M43.1416 12.1681H50.885V44.9115H43.1416V12.1681Z" fill="black"/>
<path d="M74.115 12.1681H81.8584V44.9115H74.115V12.1681Z" fill="black"/>
<path d="M12.1681 12.1681H19.9115V44.9115H12.1681V12.1681Z" fill="black"/>
<path d="M30.9735 12.1681H38.7168V44.9115H30.9735V12.1681Z" fill="black"/>
<path d="M61.9469 12.1681H69.6903V44.9115H61.9469V12.1681Z" fill="black"/>
<path d="M92.9204 12.1681H100.664V44.9115H92.9204V12.1681Z" fill="black"/>
</svg>
